999
"DXF R12 Output" (www.mydxf.blogspot.com)
 0 
SECTION
 2 
HEADER
 9 
$ACADVER
 1 
AC1009
 9 
$EXTMIN
 10 
 0 
 20 
 0 
 9 
$EXTMAX
 10 
 8.5 
 20 
 11 
 0 
ENDSEC
 0 
SECTION
 2 
ENTITIES
0
LINE
8
Layer 1
10
76.613001
20
239.512996
11
76.613001
21
225.512819
0
LINE
8
Layer 1
10
76.613001
20
225.512819
11
90.613181
21
225.512819
0
LINE
8
Layer 1
10
90.613181
20
225.512819
11
90.613181
21
239.512996
0
LINE
8
Layer 1
10
90.613181
20
239.512996
11
76.613001
21
239.512996
0
LINE
8
Layer 1
10
76.613001
20
220.462999
11
76.613001
21
206.462819
0
LINE
8
Layer 1
10
76.613001
20
206.462819
11
90.613181
21
206.462819
0
LINE
8
Layer 1
10
90.613181
20
206.462819
11
90.613181
21
220.462999
0
LINE
8
Layer 1
10
90.613181
20
220.462999
11
76.613001
21
220.462999
0
LINE
8
Layer 1
10
57.563003
20
220.462999
11
57.563003
21
206.462819
0
LINE
8
Layer 1
10
57.563003
20
206.462819
11
71.563181
21
206.462819
0
LINE
8
Layer 1
10
71.563181
20
206.462819
11
71.563181
21
220.462999
0
LINE
8
Layer 1
10
71.563181
20
220.462999
11
57.563003
21
220.462999
0
LINE
8
Layer 1
10
38.513003
20
220.462999
11
38.513003
21
206.462819
0
LINE
8
Layer 1
10
38.513003
20
206.462819
11
52.513183
21
206.462819
0
LINE
8
Layer 1
10
52.513183
20
206.462819
11
52.513183
21
220.462999
0
LINE
8
Layer 1
10
52.513183
20
220.462999
11
38.513003
21
220.462999
0
LINE
8
Layer 1
10
19.463003
20
220.462999
11
19.463003
21
206.462819
0
LINE
8
Layer 1
10
19.463003
20
206.462819
11
33.463183
21
206.462819
0
LINE
8
Layer 1
10
33.463183
20
206.462819
11
33.463183
21
220.462999
0
LINE
8
Layer 1
10
33.463183
20
220.462999
11
19.463003
21
220.462999
0
LINE
8
Layer 1
10
57.563003
20
239.512996
11
57.563003
21
225.512819
0
LINE
8
Layer 1
10
57.563003
20
225.512819
11
71.563181
21
225.512819
0
LINE
8
Layer 1
10
71.563181
20
225.512819
11
71.563181
21
239.512996
0
LINE
8
Layer 1
10
71.563181
20
239.512996
11
57.563003
21
239.512996
0
LINE
8
Layer 1
10
38.513003
20
239.512996
11
38.513003
21
225.512819
0
LINE
8
Layer 1
10
38.513003
20
225.512819
11
52.513183
21
225.512819
0
LINE
8
Layer 1
10
52.513183
20
225.512819
11
52.513183
21
239.512996
0
LINE
8
Layer 1
10
52.513183
20
239.512996
11
38.513003
21
239.512996
0
LINE
8
Layer 1
10
19.463003
20
239.436997
11
19.463003
21
225.436819
0
LINE
8
Layer 1
10
19.463003
20
225.436819
11
33.463183
21
225.436819
0
LINE
8
Layer 1
10
33.463183
20
225.436819
11
33.463183
21
239.436997
0
LINE
8
Layer 1
10
33.463183
20
239.436997
11
19.463003
21
239.436997
0
LINE
8
Layer 1
10
76.613001
20
258.486997
11
76.613001
21
244.486818
0
LINE
8
Layer 1
10
76.613001
20
244.486818
11
90.613181
21
244.486818
0
LINE
8
Layer 1
10
90.613181
20
244.486818
11
90.613181
21
258.486997
0
LINE
8
Layer 1
10
90.613181
20
258.486997
11
76.613001
21
258.486997
0
LINE
8
Layer 1
10
76.613001
20
277.536999
11
76.613001
21
263.536820
0
LINE
8
Layer 1
10
76.613001
20
263.536820
11
90.613181
21
263.536820
0
LINE
8
Layer 1
10
90.613181
20
263.536820
11
90.613181
21
277.536999
0
LINE
8
Layer 1
10
90.613181
20
277.536999
11
76.613001
21
277.536999
0
LINE
8
Layer 1
10
57.563003
20
258.486997
11
57.563003
21
244.486818
0
LINE
8
Layer 1
10
57.563003
20
244.486818
11
71.563181
21
244.486818
0
LINE
8
Layer 1
10
71.563181
20
244.486818
11
71.563181
21
258.486997
0
LINE
8
Layer 1
10
71.563181
20
258.486997
11
57.563003
21
258.486997
0
LINE
8
Layer 1
10
38.513003
20
258.486997
11
38.513003
21
244.486818
0
LINE
8
Layer 1
10
38.513003
20
244.486818
11
52.513183
21
244.486818
0
LINE
8
Layer 1
10
52.513183
20
244.486818
11
52.513183
21
258.486997
0
LINE
8
Layer 1
10
52.513183
20
258.486997
11
38.513003
21
258.486997
0
LINE
8
Layer 1
10
19.463003
20
258.486997
11
19.463003
21
244.486818
0
LINE
8
Layer 1
10
19.463003
20
244.486818
11
33.463183
21
244.486818
0
LINE
8
Layer 1
10
33.463183
20
244.486818
11
33.463183
21
258.486997
0
LINE
8
Layer 1
10
33.463183
20
258.486997
11
19.463003
21
258.486997
0
LINE
8
Layer 1
10
10.035877
20
286.964123
11
99.964123
21
286.964123
0
LINE
8
Layer 1
10
99.964123
20
286.964123
11
99.964123
21
197.035877
0
LINE
8
Layer 1
10
99.964123
20
197.035877
11
10.035877
21
197.035877
0
LINE
8
Layer 1
10
10.035877
20
197.035877
11
10.035877
21
286.964123
0
LINE
8
Layer 1
10
16.090569
20
282.947994
11
15.933627
21
282.147912
0
LINE
8
Layer 1
10
15.933627
20
282.147912
11
15.502577
21
281.502813
0
LINE
8
Layer 1
10
15.502577
20
281.502813
11
14.857081
21
281.072152
0
LINE
8
Layer 1
10
14.857081
20
281.072152
11
14.056804
21
280.915385
0
LINE
8
Layer 1
10
14.056804
20
280.915385
11
13.255656
21
281.072152
0
LINE
8
Layer 1
10
13.255656
20
281.072152
11
12.609621
21
281.502813
0
LINE
8
Layer 1
10
12.609621
20
281.502813
11
12.178294
21
282.147912
0
LINE
8
Layer 1
10
12.178294
20
282.147912
11
12.021275
21
282.947994
0
LINE
8
Layer 1
10
12.021275
20
282.947994
11
12.178294
21
283.747411
0
LINE
8
Layer 1
10
12.178294
20
283.747411
11
12.609621
21
284.392075
0
LINE
8
Layer 1
10
12.609621
20
284.392075
11
13.255656
21
284.822500
0
LINE
8
Layer 1
10
13.255656
20
284.822500
11
14.056804
21
284.979194
0
LINE
8
Layer 1
10
14.056804
20
284.979194
11
14.857081
21
284.822500
0
LINE
8
Layer 1
10
14.857081
20
284.822500
11
15.502577
21
284.392075
0
LINE
8
Layer 1
10
15.502577
20
284.392075
11
15.933627
21
283.747411
0
LINE
8
Layer 1
10
15.933627
20
283.747411
11
16.090569
21
282.947994
0
LINE
8
Layer 1
10
16.090569
20
282.947994
11
16.090569
21
282.947994
0
LINE
8
Layer 1
10
16.090569
20
201.053994
11
15.933627
21
200.253912
0
LINE
8
Layer 1
10
15.933627
20
200.253912
11
15.502577
21
199.608813
0
LINE
8
Layer 1
10
15.502577
20
199.608813
11
14.857081
21
199.178152
0
LINE
8
Layer 1
10
14.857081
20
199.178152
11
14.056804
21
199.021385
0
LINE
8
Layer 1
10
14.056804
20
199.021385
11
13.255656
21
199.178152
0
LINE
8
Layer 1
10
13.255656
20
199.178152
11
12.609621
21
199.608813
0
LINE
8
Layer 1
10
12.609621
20
199.608813
11
12.178294
21
200.253912
0
LINE
8
Layer 1
10
12.178294
20
200.253912
11
12.021275
21
201.053994
0
LINE
8
Layer 1
10
12.021275
20
201.053994
11
12.178294
21
201.853411
0
LINE
8
Layer 1
10
12.178294
20
201.853411
11
12.609621
21
202.498075
0
LINE
8
Layer 1
10
12.609621
20
202.498075
11
13.255656
21
202.928500
0
LINE
8
Layer 1
10
13.255656
20
202.928500
11
14.056804
21
203.085194
0
LINE
8
Layer 1
10
14.056804
20
203.085194
11
14.857081
21
202.928500
0
LINE
8
Layer 1
10
14.857081
20
202.928500
11
15.502577
21
202.498075
0
LINE
8
Layer 1
10
15.502577
20
202.498075
11
15.933627
21
201.853411
0
LINE
8
Layer 1
10
15.933627
20
201.853411
11
16.090569
21
201.053994
0
LINE
8
Layer 1
10
16.090569
20
201.053994
11
16.090569
21
201.053994
0
LINE
8
Layer 1
10
97.984569
20
201.053994
11
97.827627
21
200.253912
0
LINE
8
Layer 1
10
97.827627
20
200.253912
11
97.396577
21
199.608813
0
LINE
8
Layer 1
10
97.396577
20
199.608813
11
96.751081
21
199.178152
0
LINE
8
Layer 1
10
96.751081
20
199.178152
11
95.950804
21
199.021385
0
LINE
8
Layer 1
10
95.950804
20
199.021385
11
95.149656
21
199.178152
0
LINE
8
Layer 1
10
95.149656
20
199.178152
11
94.503621
21
199.608813
0
LINE
8
Layer 1
10
94.503621
20
199.608813
11
94.072294
21
200.253912
0
LINE
8
Layer 1
10
94.072294
20
200.253912
11
93.915275
21
201.053994
0
LINE
8
Layer 1
10
93.915275
20
201.053994
11
94.072294
21
201.853411
0
LINE
8
Layer 1
10
94.072294
20
201.853411
11
94.503621
21
202.498075
0
LINE
8
Layer 1
10
94.503621
20
202.498075
11
95.149656
21
202.928500
0
LINE
8
Layer 1
10
95.149656
20
202.928500
11
95.950804
21
203.085194
0
LINE
8
Layer 1
10
95.950804
20
203.085194
11
96.751081
21
202.928500
0
LINE
8
Layer 1
10
96.751081
20
202.928500
11
97.396577
21
202.498075
0
LINE
8
Layer 1
10
97.396577
20
202.498075
11
97.827627
21
201.853411
0
LINE
8
Layer 1
10
97.827627
20
201.853411
11
97.984569
21
201.053994
0
LINE
8
Layer 1
10
97.984569
20
201.053994
11
97.984569
21
201.053994
0
LINE
8
Layer 1
10
97.984569
20
282.947994
11
97.827627
21
282.147912
0
LINE
8
Layer 1
10
97.827627
20
282.147912
11
97.396577
21
281.502813
0
LINE
8
Layer 1
10
97.396577
20
281.502813
11
96.751081
21
281.072152
0
LINE
8
Layer 1
10
96.751081
20
281.072152
11
95.950804
21
280.915385
0
LINE
8
Layer 1
10
95.950804
20
280.915385
11
95.149656
21
281.072152
0
LINE
8
Layer 1
10
95.149656
20
281.072152
11
94.503621
21
281.502813
0
LINE
8
Layer 1
10
94.503621
20
281.502813
11
94.072294
21
282.147912
0
LINE
8
Layer 1
10
94.072294
20
282.147912
11
93.915275
21
282.947994
0
LINE
8
Layer 1
10
93.915275
20
282.947994
11
94.072294
21
283.747411
0
LINE
8
Layer 1
10
94.072294
20
283.747411
11
94.503621
21
284.392075
0
LINE
8
Layer 1
10
94.503621
20
284.392075
11
95.149656
21
284.822500
0
LINE
8
Layer 1
10
95.149656
20
284.822500
11
95.950804
21
284.979194
0
LINE
8
Layer 1
10
95.950804
20
284.979194
11
96.751081
21
284.822500
0
LINE
8
Layer 1
10
96.751081
20
284.822500
11
97.396577
21
284.392075
0
LINE
8
Layer 1
10
97.396577
20
284.392075
11
97.827627
21
283.747411
0
LINE
8
Layer 1
10
97.827627
20
283.747411
11
97.984569
21
282.947994
0
LINE
8
Layer 1
10
97.984569
20
282.947994
11
97.984569
21
282.947994
0
LINE
8
Layer 1
10
106.935870
20
286.964123
11
196.864116
21
286.964123
0
LINE
8
Layer 1
10
196.864116
20
286.964123
11
196.864116
21
197.035877
0
LINE
8
Layer 1
10
196.864116
20
197.035877
11
106.935870
21
197.035877
0
LINE
8
Layer 1
10
106.935870
20
197.035877
11
106.935870
21
286.964123
0
LINE
8
Layer 1
10
112.990569
20
282.947994
11
112.833627
21
282.147912
0
LINE
8
Layer 1
10
112.833627
20
282.147912
11
112.402577
21
281.502813
0
LINE
8
Layer 1
10
112.402577
20
281.502813
11
111.757081
21
281.072152
0
LINE
8
Layer 1
10
111.757081
20
281.072152
11
110.956804
21
280.915385
0
LINE
8
Layer 1
10
110.956804
20
280.915385
11
110.155656
21
281.072152
0
LINE
8
Layer 1
10
110.155656
20
281.072152
11
109.509621
21
281.502813
0
LINE
8
Layer 1
10
109.509621
20
281.502813
11
109.078294
21
282.147912
0
LINE
8
Layer 1
10
109.078294
20
282.147912
11
108.921275
21
282.947994
0
LINE
8
Layer 1
10
108.921275
20
282.947994
11
109.078294
21
283.747411
0
LINE
8
Layer 1
10
109.078294
20
283.747411
11
109.509621
21
284.392075
0
LINE
8
Layer 1
10
109.509621
20
284.392075
11
110.155656
21
284.822500
0
LINE
8
Layer 1
10
110.155656
20
284.822500
11
110.956804
21
284.979194
0
LINE
8
Layer 1
10
110.956804
20
284.979194
11
111.757081
21
284.822500
0
LINE
8
Layer 1
10
111.757081
20
284.822500
11
112.402577
21
284.392075
0
LINE
8
Layer 1
10
112.402577
20
284.392075
11
112.833627
21
283.747411
0
LINE
8
Layer 1
10
112.833627
20
283.747411
11
112.990569
21
282.947994
0
LINE
8
Layer 1
10
112.990569
20
282.947994
11
112.990569
21
282.947994
0
LINE
8
Layer 1
10
112.990569
20
201.053994
11
112.833627
21
200.253912
0
LINE
8
Layer 1
10
112.833627
20
200.253912
11
112.402577
21
199.608813
0
LINE
8
Layer 1
10
112.402577
20
199.608813
11
111.757081
21
199.178152
0
LINE
8
Layer 1
10
111.757081
20
199.178152
11
110.956804
21
199.021385
0
LINE
8
Layer 1
10
110.956804
20
199.021385
11
110.155656
21
199.178152
0
LINE
8
Layer 1
10
110.155656
20
199.178152
11
109.509621
21
199.608813
0
LINE
8
Layer 1
10
109.509621
20
199.608813
11
109.078294
21
200.253912
0
LINE
8
Layer 1
10
109.078294
20
200.253912
11
108.921275
21
201.053994
0
LINE
8
Layer 1
10
108.921275
20
201.053994
11
109.078294
21
201.853411
0
LINE
8
Layer 1
10
109.078294
20
201.853411
11
109.509621
21
202.498075
0
LINE
8
Layer 1
10
109.509621
20
202.498075
11
110.155656
21
202.928500
0
LINE
8
Layer 1
10
110.155656
20
202.928500
11
110.956804
21
203.085194
0
LINE
8
Layer 1
10
110.956804
20
203.085194
11
111.757081
21
202.928500
0
LINE
8
Layer 1
10
111.757081
20
202.928500
11
112.402577
21
202.498075
0
LINE
8
Layer 1
10
112.402577
20
202.498075
11
112.833627
21
201.853411
0
LINE
8
Layer 1
10
112.833627
20
201.853411
11
112.990569
21
201.053994
0
LINE
8
Layer 1
10
112.990569
20
201.053994
11
112.990569
21
201.053994
0
LINE
8
Layer 1
10
194.884069
20
201.053994
11
194.727127
21
200.253912
0
LINE
8
Layer 1
10
194.727127
20
200.253912
11
194.296077
21
199.608813
0
LINE
8
Layer 1
10
194.296077
20
199.608813
11
193.650581
21
199.178152
0
LINE
8
Layer 1
10
193.650581
20
199.178152
11
192.850304
21
199.021385
0
LINE
8
Layer 1
10
192.850304
20
199.021385
11
192.049156
21
199.178152
0
LINE
8
Layer 1
10
192.049156
20
199.178152
11
191.403121
21
199.608813
0
LINE
8
Layer 1
10
191.403121
20
199.608813
11
190.971794
21
200.253912
0
LINE
8
Layer 1
10
190.971794
20
200.253912
11
190.814775
21
201.053994
0
LINE
8
Layer 1
10
190.814775
20
201.053994
11
190.971794
21
201.853411
0
LINE
8
Layer 1
10
190.971794
20
201.853411
11
191.403121
21
202.498075
0
LINE
8
Layer 1
10
191.403121
20
202.498075
11
192.049156
21
202.928500
0
LINE
8
Layer 1
10
192.049156
20
202.928500
11
192.850304
21
203.085194
0
LINE
8
Layer 1
10
192.850304
20
203.085194
11
193.650581
21
202.928500
0
LINE
8
Layer 1
10
193.650581
20
202.928500
11
194.296077
21
202.498075
0
LINE
8
Layer 1
10
194.296077
20
202.498075
11
194.727127
21
201.853411
0
LINE
8
Layer 1
10
194.727127
20
201.853411
11
194.884069
21
201.053994
0
LINE
8
Layer 1
10
194.884069
20
201.053994
11
194.884069
21
201.053994
0
LINE
8
Layer 1
10
194.884069
20
282.947994
11
194.727127
21
282.147912
0
LINE
8
Layer 1
10
194.727127
20
282.147912
11
194.296077
21
281.502813
0
LINE
8
Layer 1
10
194.296077
20
281.502813
11
193.650581
21
281.072152
0
LINE
8
Layer 1
10
193.650581
20
281.072152
11
192.850304
21
280.915385
0
LINE
8
Layer 1
10
192.850304
20
280.915385
11
192.049156
21
281.072152
0
LINE
8
Layer 1
10
192.049156
20
281.072152
11
191.403121
21
281.502813
0
LINE
8
Layer 1
10
191.403121
20
281.502813
11
190.971794
21
282.147912
0
LINE
8
Layer 1
10
190.971794
20
282.147912
11
190.814775
21
282.947994
0
LINE
8
Layer 1
10
190.814775
20
282.947994
11
190.971794
21
283.747411
0
LINE
8
Layer 1
10
190.971794
20
283.747411
11
191.403121
21
284.392075
0
LINE
8
Layer 1
10
191.403121
20
284.392075
11
192.049156
21
284.822500
0
LINE
8
Layer 1
10
192.049156
20
284.822500
11
192.850304
21
284.979194
0
LINE
8
Layer 1
10
192.850304
20
284.979194
11
193.650581
21
284.822500
0
LINE
8
Layer 1
10
193.650581
20
284.822500
11
194.296077
21
284.392075
0
LINE
8
Layer 1
10
194.296077
20
284.392075
11
194.727127
21
283.747411
0
LINE
8
Layer 1
10
194.727127
20
283.747411
11
194.884069
21
282.947994
0
LINE
8
Layer 1
10
194.884069
20
282.947994
11
194.884069
21
282.947994
 0 
ENDSEC
 0 
EOF